<svg width="1024" height="1024" viewBox="0 0 1024 1024" fill="none" xmlns="http://www.w3.org/2000/svg">
<g clip-path="url(#clip0_2032_337)">
<path d="M94.4208 382.335L94.5939 469.721C219.71 467.982 346.412 514.409 441.931 609.927C537.449 705.446 584.371 831.652 582.137 957.264L669.523 957.437C671.216 809.481 616.307 661.413 503.873 548.979C390.943 436.049 242.377 380.642 94.4208 382.335Z" fill="#059669"/>
<path d="M95.1129 731.876C153.697 730.006 212.325 749.983 256.602 794.26C301.376 839.034 321.352 897.662 319.482 956.246L406.868 956.419C409.19 875.493 379.736 794.504 318.047 732.814C256.358 671.125 174.873 642.166 94.4424 643.993L95.1129 731.876Z" fill="#059669"/>
<path d="M93.9039 121.167L94.5725 208.057C287.214 206.453 480.002 278.331 626.762 425.092C773.523 571.852 845.402 764.64 844.294 957.779L931.68 957.952C933.242 743.464 852.38 527.819 688.705 364.144C524.532 199.971 308.392 119.606 93.9039 121.167Z" fill="#059669"/>
</g>
<defs>
<clipPath id="clip0_2032_337">
<rect width="1024" height="1024" fill="white"/>
</clipPath>
</defs>
</svg>
